<svg width="32" height="32" viewBox="0 0 32 32" fill="none" xmlns="http://www.w3.org/2000/svg">
  <!-- Background circle with gradient -->
  <defs>
    <linearGradient id="bgGradient" x1="0%" y1="0%" x2="100%" y2="100%">
      <stop offset="0%" style="stop-color:#8B5CF6;stop-opacity:1" />
      <stop offset="50%" style="stop-color:#3B82F6;stop-opacity:1" />
      <stop offset="100%" style="stop-color:#EC4899;stop-opacity:1" />
    </linearGradient>
    <linearGradient id="waveGradient" x1="0%" y1="0%" x2="100%" y2="0%">
      <stop offset="0%" style="stop-color:#22D3EE;stop-opacity:0.8" />
      <stop offset="50%" style="stop-color:#34D399;stop-opacity:0.9" />
      <stop offset="100%" style="stop-color:#F59E0B;stop-opacity:0.8" />
    </linearGradient>
  </defs>
  
  <!-- Background -->
  <circle cx="16" cy="16" r="15" fill="url(#bgGradient)" stroke="#ffffff" stroke-width="0.5" opacity="0.9"/>
  
  <!-- Neural network nodes -->
  <circle cx="8" cy="10" r="1.5" fill="#ffffff" opacity="0.9"/>
  <circle cx="16" cy="8" r="1.5" fill="#ffffff" opacity="0.9"/>
  <circle cx="24" cy="10" r="1.5" fill="#ffffff" opacity="0.9"/>
  <circle cx="6" cy="18" r="1.5" fill="#ffffff" opacity="0.9"/>
  <circle cx="16" cy="16" r="2" fill="#ffffff" opacity="1"/>
  <circle cx="26" cy="18" r="1.5" fill="#ffffff" opacity="0.9"/>
  <circle cx="10" cy="24" r="1.5" fill="#ffffff" opacity="0.9"/>
  <circle cx="22" cy="24" r="1.5" fill="#ffffff" opacity="0.9"/>
  
  <!-- Neural connections -->
  <line x1="8" y1="10" x2="16" y2="8" stroke="#ffffff" stroke-width="0.5" opacity="0.6"/>
  <line x1="16" y1="8" x2="24" y2="10" stroke="#ffffff" stroke-width="0.5" opacity="0.6"/>
  <line x1="8" y1="10" x2="6" y2="18" stroke="#ffffff" stroke-width="0.5" opacity="0.6"/>
  <line x1="16" y1="8" x2="16" y2="16" stroke="#ffffff" stroke-width="0.8" opacity="0.8"/>
  <line x1="24" y1="10" x2="26" y2="18" stroke="#ffffff" stroke-width="0.5" opacity="0.6"/>
  <line x1="6" y1="18" x2="16" y2="16" stroke="#ffffff" stroke-width="0.6" opacity="0.7"/>
  <line x1="16" y1="16" x2="26" y2="18" stroke="#ffffff" stroke-width="0.6" opacity="0.7"/>
  <line x1="6" y1="18" x2="10" y2="24" stroke="#ffffff" stroke-width="0.5" opacity="0.6"/>
  <line x1="16" y1="16" x2="10" y2="24" stroke="#ffffff" stroke-width="0.6" opacity="0.7"/>
  <line x1="16" y1="16" x2="22" y2="24" stroke="#ffffff" stroke-width="0.6" opacity="0.7"/>
  <line x1="26" y1="18" x2="22" y2="24" stroke="#ffffff" stroke-width="0.5" opacity="0.6"/>
  
  <!-- Sound waves -->
  <path d="M 4 16 Q 8 12, 12 16 Q 16 20, 20 16 Q 24 12, 28 16" 
        stroke="url(#waveGradient)" 
        stroke-width="1.5" 
        fill="none" 
        opacity="0.7"/>
  
  <!-- Pulse effect (animated in CSS) -->
  <circle cx="16" cy="16" r="12" fill="none" stroke="#ffffff" stroke-width="0.5" opacity="0.3">
    <animate attributeName="r" values="12;14;12" dur="2s" repeatCount="indefinite"/>
    <animate attributeName="opacity" values="0.3;0.1;0.3" dur="2s" repeatCount="indefinite"/>
  </circle>
</svg>