<svg width="32" height="32" viewBox="0 0 32 32" fill="none" xmlns="http://www.w3.org/2000/svg">
  <!-- Background circle with gradient -->
  <circle cx="16" cy="16" r="16" fill="url(#gradient)" />
  
  <!-- Music note symbol -->
  <path d="M12 8C12 7.44772 12.4477 7 13 7H19C19.5523 7 20 7.44772 20 8V18C20 19.6569 18.6569 21 17 21C15.3431 21 14 19.6569 14 18C14 16.3431 15.3431 15 17 15C17.3506 15 17.6872 15.0602 18 15.1707V11H13C12.4477 11 12 10.5523 12 10V8Z" fill="white" />
  
  <!-- Sound waves -->
  <path d="M8 14C8 13.4477 8.44772 13 9 13C9.55228 13 10 13.4477 10 14V18C10 18.5523 9.55228 19 9 19C8.44772 19 8 18.5523 8 18V14Z" fill="white" opacity="0.8" />
  
  <path d="M22 12C22 11.4477 22.4477 11 23 11C23.5523 11 24 11.4477 24 12V20C24 20.5523 23.5523 21 23 21C22.4477 21 22 20.5523 22 20V12Z" fill="white" opacity="0.8" />
  
  <!-- Gradient definition -->
  <defs>
    <linearGradient id="gradient" x1="0%" y1="0%" x2="100%" y2="100%">
      <stop offset="0%" style="stop-color:#8B5CF6;stop-opacity:1" />
      <stop offset="50%" style="stop-color:#3B82F6;stop-opacity:1" />
      <stop offset="100%" style="stop-color:#EC4899;stop-opacity:1" />
    </linearGradient>
  </defs>
</svg>