<svg width="32" height="32" viewBox="0 0 32 32" fill="none" xmlns="http://www.w3.org/2000/svg">
  <defs>
    <linearGradient id="neonGradient" x1="0%" y1="0%" x2="100%" y2="100%">
      <stop offset="0%" style="stop-color:#8B5CF6;stop-opacity:1" />
      <stop offset="50%" style="stop-color:#3B82F6;stop-opacity:1" />
      <stop offset="100%" style="stop-color:#EC4899;stop-opacity:1" />
    </linearGradient>
    <filter id="glow">
      <feGaussianBlur stdDeviation="2" result="coloredBlur"/>
      <feMerge> 
        <feMergeNode in="coloredBlur"/>
        <feMergeNode in="SourceGraphic"/>
      </feMerge>
    </filter>
  </defs>
  
  <!-- Background circle with glow -->
  <circle cx="16" cy="16" r="14" fill="url(#neonGradient)" filter="url(#glow)" opacity="0.9"/>
  
  <!-- Neural network nodes -->
  <circle cx="8" cy="10" r="1.5" fill="white" opacity="0.9"/>
  <circle cx="16" cy="8" r="1.5" fill="white" opacity="0.9"/>
  <circle cx="24" cy="10" r="1.5" fill="white" opacity="0.9"/>
  <circle cx="6" cy="16" r="1.5" fill="white" opacity="0.9"/>
  <circle cx="16" cy="16" r="2" fill="white"/>
  <circle cx="26" cy="16" r="1.5" fill="white" opacity="0.9"/>
  <circle cx="8" cy="22" r="1.5" fill="white" opacity="0.9"/>
  <circle cx="16" cy="24" r="1.5" fill="white" opacity="0.9"/>
  <circle cx="24" cy="22" r="1.5" fill="white" opacity="0.9"/>
  
  <!-- Neural connections -->
  <line x1="8" y1="10" x2="16" y2="8" stroke="white" stroke-width="0.5" opacity="0.6"/>
  <line x1="16" y1="8" x2="24" y2="10" stroke="white" stroke-width="0.5" opacity="0.6"/>
  <line x1="8" y1="10" x2="6" y2="16" stroke="white" stroke-width="0.5" opacity="0.6"/>
  <line x1="16" y1="8" x2="16" y2="16" stroke="white" stroke-width="0.8" opacity="0.8"/>
  <line x1="24" y1="10" x2="26" y2="16" stroke="white" stroke-width="0.5" opacity="0.6"/>
  <line x1="6" y1="16" x2="16" y2="16" stroke="white" stroke-width="0.8" opacity="0.8"/>
  <line x1="16" y1="16" x2="26" y2="16" stroke="white" stroke-width="0.8" opacity="0.8"/>
  <line x1="8" y1="22" x2="16" y2="16" stroke="white" stroke-width="0.8" opacity="0.8"/>
  <line x1="16" y1="16" x2="24" y2="22" stroke="white" stroke-width="0.8" opacity="0.8"/>
  <line x1="8" y1="22" x2="16" y2="24" stroke="white" stroke-width="0.5" opacity="0.6"/>
  <line x1="16" y1="24" x2="24" y2="22" stroke="white" stroke-width="0.5" opacity="0.6"/>
  
  <!-- Music wave overlay -->
  <path d="M4 20 Q8 18 12 20 T20 20 T28 20" stroke="white" stroke-width="1" fill="none" opacity="0.4"/>
  <path d="M4 18 Q8 16 12 18 T20 18 T28 18" stroke="white" stroke-width="0.8" fill="none" opacity="0.3"/>
</svg>